#!OML:ASF H:\IndianDance\Patient Classification 1\Patient 1\Session 1\dancer.ASF
:FULLY-SPECIFIED
:DEGREES
2456
root -10.0748 14.1623 1.26835 183.639 18.9326 -540.973
lowerback 8.7412 1.87667 3.48142
upperback -11.8935 3.65212 -4.2751
thorax -18.0851 1.18302 -7.94357
lowerneck -11.761 -13.6694 -8.67392
upperneck -4.34559 -16.5673 3.44781
head 1.61926 -7.84423 1.57729
rclavicle -2.14687e-014 3.65764e-014
rhumerus 7.18785 -4.33703 -3.01984
rradius 109.635
rwrist 0.0939306
rhand -49.2557 49.1037
rfingers 7.12502
rthumb -21.8746 20.3201
lclavicle -2.14687e-014 3.65764e-014
lhumerus -8.47993 -10.8825 -17.4446
lradius 26.7951
lwrist -0.417323
lhand 8.55321 11.8849
lfingers 7.12502
lthumb 33.7529 1118.72
rfemur -39.0496 13.6477 -7.01445
rtibia 28.283
rfoot -48.6773 -42.3269
rtoes 30.82
lfemur -13.904 0.794519 -15.4074
ltibia 51.1472
lfoot -33.045 13.6987
ltoes -8.82383
2457
root -9.9615 14.1869 1.20383 183.777 18.7382 -540.682
lowerback 8.29579 1.82634 3.40684
upperback -11.9304 3.58807 -4.18094
thorax -17.8497 1.19651 -7.73647
lowerneck -11.7609 -13.6272 -8.67359
upperneck -4.26838 -16.5142 3.34303
head 1.63153 -7.82313 1.54679
rclavicle 7.196e-014 -1.51076e-014
rhumerus 5.73427 -1.93194 -3.58934
rradius 108.513
rwrist 1.76685
rhand -49.189 49.6452
rfingers 7.12502
rthumb -21.8105 20.8542
lclavicle 7.196e-014 -1.51076e-014
lhumerus -8.55332 -10.8876 -17.1705
lradius 26.7844
lwrist -0.40973
lhand 8.51815 11.7552
lfingers 7.12502
lthumb 33.7195 1118.6
rfemur -38.7669 15.0552 -6.97569
rtibia 28.2848
rfoot -51.785 -42.6832
rtoes 32.514
lfemur -13.3983 -0.0020941 -15.0016
ltibia 50.8306
lfoot -32.6107 14.2907
ltoes -7.79362
2458
root -9.85307 14.212 1.14345 183.947 18.5747 -540.382
lowerback 7.89257 1.78164 3.38739
upperback -11.9573 3.53942 -4.07906
thorax -17.6258 1.20726 -7.55926
lowerneck -11.7534 -13.5908 -8.67896
upperneck -4.23272 -16.4663 3.26288
head 1.63195 -7.80236 1.52623
rclavicle 0 7.15625e-015
rhumerus 4.20903 0.335906 -4.21578
rradius 107.366
rwrist 3.33363
rhand -49.1166 50.0993
rfingers 7.12502
rthumb -21.741 21.3002
lclavicle 0 7.15625e-015
lhumerus -8.69172 -10.9163 -16.8781
lradius 26.762
lwrist -0.335317
lhand 8.47055 11.6406
lfingers 7.12502
lthumb 33.6743 1118.5
rfemur -38.6251 16.3919 -6.96374
rtibia 28.2849
rfoot -54.3292 -42.9563
rtoes 33.7078
lfemur -13.0655 -0.716716 -14.6585
ltibia 50.7259
lfoot -32.0868 14.9005
ltoes -6.23381
2459
root -9.75053 14.238 1.0882 184.144 18.4502 -540.069
lowerback 7.54464 1.74137 3.42469
upperback -11.9715 3.50348 -3.96542
thorax -17.4196 1.21364 -7.408
lowerneck -11.7491 -13.5559 -8.67835
upperneck -4.23736 -16.4181 3.20128
head 1.62071 -7.77929 1.51175
rclavicle -2.70347e-014 2.22639e-014
rhumerus 2.60169 2.46739 -4.91068
rradius 106.213
rwrist 4.80857
rhand -49.0876 50.5432
rfingers 7.12502
rthumb -21.7132 21.741
lclavicle -2.70347e-014 2.22639e-014
lhumerus -8.90362 -10.8881 -16.5562
lradius 26.6989
lwrist -0.313719
lhand 8.4462 11.5144
lfingers 7.12502
lthumb 33.6512 1118.37
rfemur -38.5581 17.2791 -6.7782
rtibia 28.3014
rfoot -56.0282 -42.8521
rtoes 34.6162
lfemur -12.9283 -1.28101 -14.3738
ltibia 50.8679
lfoot -31.4834 15.4737
ltoes -4.12411
2460
root -9.65472 14.2639 1.03892 184.363 18.3722 -539.749
lowerback 7.26407 1.70757 3.51182
upperback -11.973 3.48169 -3.83615
thorax -17.2394 1.21713 -7.27523
lowerneck -11.7397 -13.5188 -8.67719
upperneck -4.28927 -16.3648 3.16281
head 1.5948 -7.75131 1.5067
rclavicle -1.78906e-014 2.38542e-014
rhumerus 0.948095 4.46427 -5.66826
rradius 105.016
rwrist 6.21466
rhand -49.1021 50.9677
rfingers 7.12502
rthumb -21.7271 22.167
lclavicle -1.78906e-014 2.38542e-014
lhumerus -9.19557 -10.9143 -16.2113
lradius 26.607
lwrist -0.255391
lhand 8.44319 11.3977
lfingers 7.12502
lthumb 33.6483 1118.26
rfemur -38.4705 17.1937 -6.14483
rtibia 28.3508
rfoot -56.112 -42.4856
rtoes 34.8763
lfemur -13.0076 -1.64368 -14.15
ltibia 51.2792
lfoot -30.8366 15.9947
ltoes -1.75104
2461
root -9.56617 14.29 0.996108 184.596 18.3448 -539.428
lowerback 7.05984 1.681 3.63431
upperback -11.9606 3.47295 -3.68639
thorax -17.0908 1.21927 -7.1472
lowerneck -11.7272 -13.4777 -8.68129
upperneck -4.37841 -16.3039 3.14042
head 1.55763 -7.71759 1.50949
rclavicle 7.31528e-014 -6.20208e-014
rhumerus -0.623355 6.32442 -6.45278
rradius 103.667
rwrist 7.53246
rhand -49.1227 51.2936
rfingers 7.12502
rthumb -21.7468 22.4952
lclavicle 7.31528e-014 -6.20208e-014
lhumerus -9.56793 -11.013 -15.8346
lradius 26.4814
lwrist -0.148481
lhand 8.46058 11.3097
lfingers 7.12502
lthumb 33.6648 1118.17
rfemur -38.3358 16.0047 -4.98934
rtibia 28.4464
rfoot -54.4801 -42.0131
rtoes 34.2566
lfemur -13.3086 -1.75668 -13.9922
ltibia 51.9538
lfoot -30.182 16.3895
ltoes 0.560484
2462
root -9.48526 14.316 0.960011 184.832 18.3723 -539.114
lowerback 6.93784 1.66421 3.78193
upperback -11.9299 3.47859 -3.51624
thorax -16.9719 1.22198 -7.01822
lowerneck -11.7323 -13.4341 -8.68785
upperneck -4.48584 -16.2356 3.12656
head 1.51807 -7.67871 1.51534
rclavicle -7.95139e-014 2.78299e-014
rhumerus -2.02469 8.03747 -7.22654
rradius 102.085
rwrist 8.75226
rhand -49.1239 51.5303
rfingers 7.12502
rthumb -21.748 22.7321
lclavicle -7.95139e-014 2.78299e-014
lhumerus -10.011 -11.1762 -15.4215
lradius 26.3142
lwrist -0.0138528
lhand 8.49393 11.2637
lfingers 7.12502
lthumb 33.6965 1118.11
rfemur -38.219 14.0681 -3.50047
rtibia 28.5937
rfoot -51.8118 -41.4051
rtoes 33.0296
lfemur -13.8271 -1.60341 -13.9116
ltibia 52.8618
lfoot -29.5718 16.497
ltoes 2.52566
